<svg xmlns="http://www.w3.org/2000/svg" viewBox="0 0 16 16"><style>.icon-canvas-transparent{opacity:0;fill:#f6f6f6}.icon-vs-out{fill:#f6f6f6}.icon-vs-bg{fill:#424242}.icon-vs-action-green{fill:#388a34}</style><path id="canvas" d="M16 16H0V0h16v16z" class="icon-canvas-transparent"/><path id="outline" d="M16 1.414L11.414 6H16v1.414L7.414 16H5v-1.234L7.371 10H4V8.764L4.382 8H2.019V6H0V2.018h2.019V0H6v2.018h1.373L8.382 0H16v1.414z" class="icon-vs-out" style="display:none"/><path id="iconBg" d="M9 7h6l-8 8H6l2.984-6H5l.5-1H6V7l.5-1H8V3l1-2h6L9 7z" class="icon-vs-bg"/><path id="colorAction" d="M7 3.018H5V1H3.019v2.018H1V5h2.019v2H5V5h2V3.018z" class="icon-vs-action-green"/></svg>